<svg xmlns="http://www.w3.org/2000/svg" fill="#c7c7c7" shape-rendering="geometricPrecision" text-rendering="geometricPrecision" image-rendering="optimizeQuality" fill-rule="evenodd" clip-rule="evenodd" viewBox="0 0 512 512"><path d="M105 0h302c57.928.155 104.845 47.072 105 104.996V407c-.155 57.926-47.072 104.844-104.996 104.998L105 512C47.074 511.844.156 464.926.002 407.003L0 105C.156 47.072 47.074.155 104.997 0H105zm263.896 153.382a269.459 269.459 0 00-67.117-20.638 186.784 186.784 0 00-8.571 17.476 250.18 250.18 0 00-37.246-2.8c-12.447 0-24.956.945-37.25 2.776-2.512-5.927-5.428-11.804-8.592-17.455a271.746 271.746 0 00-67.133 20.681c-42.48 62.842-53.992 124.112-48.236 184.513a270.634 270.634 0 0082.308 41.312c6.637-8.959 12.583-18.497 17.63-28.422a174.021 174.021 0 01-27.772-13.253c2.329-1.689 4.606-3.428 6.805-5.118 25.727 12.083 53.837 18.385 82.277 18.385 28.442 0 56.552-6.302 82.279-18.386 2.226 1.816 4.503 3.556 6.805 5.117a175.079 175.079 0 01-27.822 13.289 197.895 197.895 0 0017.63 28.4 269.527 269.527 0 0082.363-41.306l-.007.007c6.754-70.044-11.537-130.753-48.351-184.578zM201.969 300.789c-16.04 0-29.293-14.556-29.293-32.464s12.791-32.593 29.241-32.593 29.599 14.685 29.318 32.593c-.282 17.908-12.919 32.464-29.266 32.464zm108.061 0c-16.066 0-29.266-14.556-29.266-32.464s12.791-32.593 29.266-32.593c16.475 0 29.523 14.685 29.241 32.593-.281 17.908-12.893 32.464-29.241 32.464z"/></svg>